<?xml version="1.0" encoding="utf-8"?>
<!-- Generator: Adobe Illustrator 27.0.0, SVG Export Plug-In . SVG Version: 6.00 Build 0)  -->
<svg version="1.1" id="Слой_1" xmlns="http://www.w3.org/2000/svg" xmlns:xlink="http://www.w3.org/1999/xlink" x="0px" y="0px"
	 viewBox="0 0 595.28 841.89" style="enable-background:new 0 0 595.28 841.89;" xml:space="preserve">
<g>
	<g>
		<path d="M300.93,505.73H198.4v-2.1c2.1,0,3.9-0.74,5.39-2.23c1.49-1.49,2.23-3.29,2.23-5.39v-156.7c0-2.1-0.75-3.9-2.23-5.39
			c-1.49-1.49-3.29-2.24-5.39-2.24v-2.1h102.54c23.83,1.58,43.81,10.78,59.94,27.61c16.12,16.83,24.19,36.98,24.19,60.47
			c0,23.31-8.06,43.38-24.19,60.21C344.75,494.69,324.76,503.98,300.93,505.73z M299.35,503.63c20.51-1.22,37.73-10.12,51.66-26.68
			c13.93-16.56,20.9-36.32,20.9-59.29c0-23.14-7.01-42.94-21.03-59.42c-14.02-16.47-31.38-25.33-52.06-26.55h-73.62
			c-2.1,0-3.9,0.75-5.39,2.24c-1.49,1.49-2.23,3.29-2.23,5.39v156.7c0,2.1,0.74,3.9,2.23,5.39c1.49,1.49,3.29,2.23,5.39,2.23H299.35
			z"/>
	</g>
	<g>
		<path d="M307.23,512.31c-16.42,0-31.41-4.02-44.95-12.06c-13.55-8.04-24.38-18.83-32.51-32.38
			c-8.13-13.54-12.19-28.53-12.19-44.95c0-16.42,4.02-31.4,12.06-44.95c8.04-13.54,18.83-24.34,32.38-32.38
			c13.54-8.04,28.53-13.9,44.95-13.9h2.79v17.33h-2.03c0-2.03-0.68-3.81-2.03-5.33c-1.36-1.52-3.04-2.37-5.08-2.54
			c-0.85-0.17-2.46-0.25-4.83-0.25c-19.47,0-36.23,6.69-50.28,20.06c-0.51,0.34-0.97,0.76-1.4,1.27c-0.42,0.51-0.89,0.93-1.4,1.27
			c-11.68,13.55-17.52,29.88-17.52,49.01v4.83c2.2,23.2,11.55,43.04,28.06,59.55c16.51,16.51,36.35,25.86,59.55,28.06l4.57,0.25
			c2.37,0,4.74-0.17,7.11-0.51c19.97-2.03,36.32-10.24,49.02-24.64c12.7-14.39,19.64-31.49,20.83-51.3l0.25-4.06
			c0-4.23-1.02-8.38-3.04-12.44c-4.24-6.77-10.33-10.16-18.29-10.16c-5.08,0-9.74,1.95-13.97,5.84c-4.23,3.9-6.6,9.48-7.11,16.76
			l-0.76,4.83c-1.69,6.27-5.76,11.01-12.19,14.22l-4.06,2.79c-3.05,3.05-4.66,6.94-4.83,11.68h-2.03v-25.65h2.03
			c0,2.03,0.68,3.85,2.03,5.46c1.35,1.61,3.3,2.41,5.84,2.41c3.38,0,6.09-1.56,8.13-4.7c2.03-3.13,3.26-6.48,3.68-10.03
			c0.42-3.56,1.05-7.02,1.9-10.41c1.69-4.57,4.48-8.25,8.38-11.05c3.89-2.79,8.21-4.19,12.95-4.19c4.74,0,9.14,1.27,13.21,3.81
			c6.94,4.74,10.41,12.02,10.41,21.84c0,2.2-0.25,4.4-0.76,6.6c-3.39,23.03-13.21,42.12-29.46,57.27
			C350.41,504.73,330.6,512.31,307.23,512.31z"/>
	</g>
</g>
</svg>
